<?xml version="1.0" encoding="UTF-8"?>
<svg id="Layer_1" data-name="Layer 1" xmlns="http://www.w3.org/2000/svg" viewBox="0 0 850.47 1195.73">
  <defs>
    <style>
      .cls-1 {
        fill: #fff;
      }
    </style>
  </defs>
  <path d="M631.74,740.83c-39.59,50.98-77.17,82.65-140.6,99.91-112.29,30.56-224.67-17.4-283.91-115.59-40.45-67.04-33.25-121.75-33.8-197.2-.54-74.92-1.37-150.12-1.08-224.92.2-51.94-1.46-99.77,18.82-148.26,25.94-62.04,84.35-119.03,148.24-141.76,7.84-2.79,31.41-10.79,38.49-11.51,19.56-1.97,46.14-1.61,66.04-1.06,25.25.7,42.69,4.12,66.43,12.57,59.25,21.08,120.47,77.45,146.22,134.78,25.02,55.68,20.67,122.3,20.84,182.16.19,66.05-.61,132.02-1.08,198-.26,35.53,2.63,73.47-2.86,108.14-6.49,41.02-16.23,71.87-41.76,104.74ZM641.39,375.48h-159.5c-11.64,0-20.79-14.38-19.41-25.42.92-7.4,10.69-20.58,18.41-20.58h159c3.99-6.2,3.96-20.9,0-27h-160c-2.52,0-10.69-5.27-12.52-7.48-8.86-10.7-5.24-26.73,5.68-34.36,1.03-.72,7.39-4.16,7.84-4.16h159c.16,0,1.78-1.56,2-2.02,1.76-65.01-25.96-124.18-73.98-167.01-138.88-123.89-363.16-20.48-360.62,163.54.02,1.6.97,5.48,2.6,5.48h159c.44,0,6.81,3.44,7.84,4.16,10.92,7.63,14.54,23.66,5.68,34.36-1.83,2.21-10,7.48-12.52,7.48h-160c-.75,0-2.26,2.43-2.47,3.53-.49,2.54-.34,19.69.49,21.46.22.47,1.81,2.02,1.98,2.02h159c7.72,0,17.49,13.18,18.41,20.58,1.38,11.04-7.77,25.42-19.41,25.42h-159.5c-.82,4.97-2.34,20.02-.48,23.98.22.47,1.81,2.02,1.98,2.02h157c.42,0,6.82,2.64,7.82,3.18,13.74,7.32,17.62,27.31,5.2,37.85-3.24,2.75-9.89,5.98-14.02,5.98h-157l-1.5,1.5v22c0,.18,2.32,2.5,2.5,2.5h158c.41,0,6.44,2.98,7.44,3.56,15.62,9.13,16.69,32.45-.26,40.62-1.09.53-7.59,2.82-8.18,2.82h-158c-1.43.88-1.38,1.99-1.55,3.45-2.23,18.97-.75,53.1,0,73.09,2.59,68.05,26.93,123,79.03,166.97,133.44,112.62,340.81,24.39,355-148.02,2.11-25.68,3.07-64.49,1.06-90.04-.15-1.93-.59-3.62-1.05-5.45h-158.5c-.59,0-7.09-2.3-8.18-2.82-16.95-8.17-15.88-31.49-.26-40.62.99-.58,7.03-3.56,7.44-3.56h158c.18,0,2.5-2.32,2.5-2.5v-22l-1.5-1.5h-157c-22.65,0-29.8-32.65-8.82-43.82,1-.53,7.4-3.18,7.82-3.18h157c.17,0,1.76-1.54,1.98-2.02,1.11-2.38.77-23.19-.48-23.98Z"/>
  <path d="M347.39,1016.98c-.81-2.49-10.5-2.33-13.06-2.94-112.07-26.72-195.28-84.26-262.38-177.62-33.44-46.53-55.05-102.3-66.3-158.7-.69-3.48.22-7.07-.48-10.52-.62-3.06-3.15-6.03-3.67-10.33-1.23-10.3.21-23.22-.07-33.93-1.05-40.68-2.6-82.33-.05-122.97.47-7.54-1.18-14.09,2.8-21.2,23.44-41.94,76.62-60.41,118.12-31.7,11.15,7.71,24.23,21.54,28.56,34.44,10.34,30.82,2.82,86.87,4.49,121.51,2.99,62.24,22.91,120.43,63.04,167.96,112.61,133.36,317.17,126.92,422.44-11.57,9.36-12.31,13.92-24.3,21.35-36.65,21.59-35.88,30.24-77.8,32.25-119.75,1.66-34.66-5.86-90.7,4.49-121.51,5.8-17.28,26.17-35.15,42.78-42.22,22.22-9.46,47.44-7.75,68.37,4.02,13.07,7.36,36.8,29.34,38.32,44.68,4.12,41.74,1.06,92.57-.03,134.95-.28,10.71,1.16,23.63-.07,33.93-.51,4.3-3.05,7.27-3.67,10.33-8.12,39.96-12.77,64.5-29.71,102.29-11.67,26.05-24.84,51.16-42.07,73.93-68.1,89.97-147.08,144.32-257.38,170.62-4.21,1-9.6-.19-13.06,2.94v24.5h152.5c.8,0,13.46,4.13,15.19,4.81,18.87,7.36,41.35,28.35,46.87,48.13,12,43-5.87,72.9-40.62,96.49-3.1,2.1-6.76,3.05-10.45,3.55-160.56,1.68-321.42,1.68-481.98,0-9.08-.9-9.11-3.81-15.01-7.99-21.27-15.06-34.47-29.42-39.06-55.94-6.19-35.81,16.94-71.4,49.86-84.24,1.73-.68,14.39-4.81,15.19-4.81h152.5v-24.5ZM644.89,1075.48h-175l-1.5-1.5v-86c0-.94,2.54-2.09,3.57-2.43,7.97-2.67,19.96-2.67,28.64-4.36,175.32-34.22,308.16-186.81,314.83-366.17-2.49-35.12,3.17-74.48,0-109.08-1.5-16.38-18.08-35.2-34.63-37.37-29.78-3.9-50.46,15.16-52.46,44.37-2.65,38.78,2.75,80.02-.98,119.02-10.5,109.97-90.62,210.69-192.74,250.26-175.94,68.19-376.63-43.63-408.93-228.56-8.29-47.44-1.06-93.72-4.27-140.73-3.76-55-72.89-61.09-86.8-9.72.63,37-1.65,74.89-.28,111.8,6.68,179.38,139.48,331.94,314.83,366.17,8.68,1.69,20.67,1.7,28.64,4.36,1.03.34,3.57,1.49,3.57,2.43v86l-1.5,1.5h-175c-6.55,0-17.74,4.94-22.98,9.02-30.94,24.14-18.02,68.69,18.22,77.74h449.52c49.24-11.3,45.92-81.87-4.76-86.76Z"/>
  <path class="cls-1" d="M641.39,375.48c1.25.8,1.6,21.6.48,23.98-.22.47-1.81,2.02-1.98,2.02h-157c-.42,0-6.82,2.64-7.82,3.18-20.98,11.17-13.83,43.82,8.82,43.82h157l1.5,1.5v22c0,.18-2.32,2.5-2.5,2.5h-158c-.41,0-6.44,2.98-7.44,3.56-15.62,9.13-16.69,32.45.26,40.62,1.09.53,7.59,2.82,8.18,2.82h158.5c.46,1.83.9,3.53,1.05,5.45,2.01,25.55,1.05,64.36-1.06,90.04-14.19,172.42-221.57,260.64-355,148.02-52.1-43.97-76.44-98.92-79.03-166.97-.76-20-2.24-54.13,0-73.09.17-1.46.12-2.57,1.55-3.45h158c.59,0,7.09-2.3,8.18-2.82,16.95-8.17,15.88-31.49.26-40.62-.99-.58-7.03-3.56-7.44-3.56h-158c-.18,0-2.5-2.32-2.5-2.5v-22l1.5-1.5h157c4.13,0,10.79-3.23,14.02-5.98,12.42-10.54,8.54-30.53-5.2-37.85-1-.53-7.4-3.18-7.82-3.18h-157c-.17,0-1.76-1.54-1.98-2.02-1.85-3.96-.34-19.01.48-23.98h159.5c11.64,0,20.79-14.38,19.41-25.42-.92-7.4-10.69-20.58-18.41-20.58h-159c-.17,0-1.76-1.54-1.98-2.02-.83-1.77-.98-18.92-.49-21.46.21-1.1,1.73-3.53,2.47-3.53h160c2.52,0,10.69-5.27,12.52-7.48,8.86-10.7,5.24-26.73-5.68-34.36-1.03-.72-7.39-4.16-7.84-4.16h-159c-1.63,0-2.58-3.89-2.6-5.48-2.54-184.02,221.75-287.43,360.62-163.54,48.01,42.83,75.73,102,73.98,167.01-.22.46-1.84,2.02-2,2.02h-159c-.44,0-6.81,3.44-7.84,4.16-10.92,7.63-14.54,23.66-5.68,34.36,1.83,2.21,10,7.48,12.52,7.48h160c3.96,6.1,3.99,20.8,0,27h-159c-7.72,0-17.49,13.18-18.41,20.58-1.38,11.04,7.77,25.42,19.41,25.42h159.5Z"/>
  <path class="cls-1" d="M644.89,1075.48c50.68,4.89,54,75.46,4.76,86.76H200.13c-36.23-9.04-49.16-53.6-18.22-77.74,5.24-4.09,16.42-9.02,22.98-9.02h175l1.5-1.5v-86c0-.94-2.54-2.09-3.57-2.43-7.97-2.67-19.96-2.67-28.64-4.36-175.35-34.22-308.16-186.79-314.83-366.17-1.37-36.91.91-74.8.28-111.8,13.91-51.37,83.05-45.28,86.8,9.72,3.21,47.01-4.01,93.28,4.27,140.73,32.31,184.94,232.99,296.75,408.93,228.56,102.12-39.58,182.24-140.29,192.74-250.26,3.72-39-1.67-80.25.98-119.02,2-29.22,22.67-48.28,52.46-44.37,16.54,2.17,33.13,20.99,34.63,37.37,3.17,34.61-2.49,73.97,0,109.08-6.68,179.36-139.51,331.95-314.83,366.17-8.68,1.69-20.67,1.7-28.64,4.36-1.03.34-3.57,1.49-3.57,2.43v86l1.5,1.5h175Z"/>
</svg>